<?xml version="1.0" encoding="utf-8"?><svg version="1.1" id="Layer_1" xmlns="http://www.w3.org/2000/svg" xmlns:xlink="http://www.w3.org/1999/xlink" x="0px" y="0px" viewBox="0 0 120.7 122.88" style="enable-background:new 0 0 120.7 122.88" xml:space="preserve"><style type="text/css">.st0{fill-rule:evenodd;clip-rule:evenodd;fill:#1A1A1A;} .st1{fill-rule:evenodd;clip-rule:evenodd;fill:#C84436;}</style><g><path class="st0" d="M16.57,0h66.24c4.56,0,8.7,1.86,11.71,4.87c3.01,3.01,4.87,7.15,4.87,11.71v41.43c0,4.56-1.86,8.7-4.87,11.71 c-3.01,3.01-7.15,4.87-11.71,4.87H45.22L20.05,96.21c-1.17,1-2.93,0.87-3.93-0.31c-0.49-0.58-0.71-1.29-0.67-1.99l1.34-19.34h-0.22 c-4.56,0-8.7-1.86-11.71-4.87C1.86,66.71,0,62.56,0,58.01V16.57c0-4.56,1.86-8.7,4.87-11.71C7.86,1.86,12.01,0,16.57,0L16.57,0 L16.57,0z M29.44,15.15h4.29v11.65h6.69v3.81H29.44V15.15L29.44,15.15z M42.41,15.15h3.86v2.92h-3.86V15.15L42.41,15.15z M42.41,19.42h3.86v11.2h-3.86V19.42L42.41,19.42z M47.74,19.42h4.01l1.95,7.1l2.02-7.1h3.89l-4.27,11.2h-3.42L47.74,19.42 L47.74,19.42z M71.55,26.08h-7.72c0.07,0.69,0.24,1.2,0.5,1.54c0.37,0.49,0.86,0.73,1.46,0.73c0.38,0,0.74-0.1,1.08-0.32 c0.21-0.13,0.43-0.37,0.67-0.71l3.8,0.39c-0.58,1.13-1.28,1.93-2.1,2.42c-0.82,0.49-2,0.73-3.53,0.73c-1.33,0-2.38-0.21-3.14-0.63 c-0.76-0.42-1.4-1.08-1.9-1.99c-0.5-0.91-0.75-1.98-0.75-3.21c0-1.75,0.5-3.16,1.51-4.25c1.01-1.08,2.4-1.63,4.17-1.63 c1.44,0,2.58,0.24,3.41,0.73c0.83,0.49,1.47,1.19,1.9,2.11c0.44,0.92,0.65,2.12,0.65,3.6V26.08L71.55,26.08z M67.63,24.02 c-0.08-0.83-0.28-1.43-0.6-1.78c-0.33-0.36-0.75-0.54-1.28-0.54c-0.61,0-1.11,0.27-1.47,0.81c-0.23,0.34-0.38,0.84-0.44,1.51H67.63 L67.63,24.02z M82.8,5.59H16.57c-3.02,0-5.76,1.23-7.76,3.23c-1.99,1.99-3.23,4.73-3.23,7.76v41.43c0,3.02,1.23,5.76,3.23,7.76 c1.99,1.99,4.74,3.23,7.76,3.23h3.22V69l0.18,0.01c1.53,0.11,2.7,1.44,2.59,2.97l-1.09,15.67L42.23,69.8 c0.5-0.5,1.19-0.81,1.97-0.81H82.8c3.02,0,5.76-1.23,7.76-3.23c1.99-1.99,3.23-4.74,3.23-7.76V16.57c0-3.02-1.23-5.76-3.23-7.76 C88.57,6.82,85.83,5.59,82.8,5.59L82.8,5.59L82.8,5.59z"/><path class="st1" d="M107.52,31.43c3.25,0.63,6.16,2.23,8.41,4.48c2.94,2.94,4.77,7,4.77,11.47v36.96c0,4.47-1.82,8.53-4.77,11.47 c-2.94,2.94-7,4.77-11.47,4.77l-0.59,0l1.37,19.69l0,0c0.04,0.62-0.14,1.25-0.58,1.75c-0.88,1.03-2.43,1.15-3.45,0.27L75.95,99.94 H40.29l16.39-16.67l37.1,0c7.57,0,13.78-6.2,13.78-13.78V32.52C107.56,32.15,107.55,31.79,107.52,31.43L107.52,31.43L107.52,31.43z M30.75,48.83l4.92,1.61c-0.33,1.49-0.85,2.73-1.56,3.74c-0.71,1-1.6,1.76-2.65,2.26c-1.05,0.51-2.39,0.76-4.02,0.76 c-1.98,0-3.59-0.31-4.84-0.93c-1.25-0.62-2.34-1.71-3.25-3.28c-0.91-1.56-1.36-3.56-1.36-6c0-3.25,0.8-5.75,2.4-7.49 c1.6-1.75,3.86-2.62,6.79-2.62c2.29,0,4.09,0.5,5.4,1.5c1.31,1,2.28,2.54,2.92,4.61l-4.96,1.19c-0.17-0.6-0.36-1.04-0.55-1.32 c-0.31-0.46-0.7-0.82-1.15-1.07c-0.45-0.25-0.96-0.38-1.53-0.38c-1.27,0-2.25,0.55-2.92,1.66c-0.51,0.82-0.77,2.11-0.77,3.87 c0,2.18,0.3,3.67,0.92,4.48c0.61,0.81,1.47,1.21,2.58,1.21c1.08,0,1.89-0.32,2.44-0.98C30.1,51.01,30.5,50.06,30.75,48.83 L30.75,48.83z M38.34,37.21h5.05v7.23c0.69-0.77,1.37-1.32,2.04-1.65c0.68-0.33,1.48-0.5,2.4-0.5c1.38,0,2.45,0.45,3.25,1.35 c0.79,0.9,1.18,2.29,1.18,4.15v9.05h-5.07v-7.82c0-0.89-0.15-1.52-0.46-1.89c-0.31-0.37-0.74-0.56-1.29-0.56 c-0.61,0-1.11,0.25-1.49,0.75c-0.38,0.5-0.57,1.4-0.57,2.69v6.83h-5.05V37.21L38.34,37.21z M60.15,47.23l-4.82-0.55 c0.18-0.91,0.44-1.62,0.79-2.15c0.34-0.52,0.83-0.97,1.48-1.36c0.46-0.28,1.1-0.49,1.91-0.64c0.81-0.15,1.68-0.23,2.63-0.23 c1.51,0,2.73,0.09,3.64,0.27c0.92,0.18,1.68,0.57,2.29,1.15c0.43,0.4,0.77,0.97,1.02,1.71c0.25,0.74,0.37,1.44,0.37,2.11v6.28 c0,0.67,0.04,1.19,0.12,1.57c0.08,0.38,0.25,0.86,0.52,1.45h-4.74c-0.19-0.37-0.32-0.64-0.37-0.84c-0.06-0.19-0.12-0.49-0.17-0.91 c-0.66,0.69-1.32,1.18-1.97,1.47c-0.89,0.39-1.93,0.59-3.11,0.59c-1.57,0-2.76-0.39-3.58-1.18c-0.81-0.78-1.22-1.75-1.22-2.9 c0-1.08,0.29-1.97,0.88-2.67c0.59-0.7,1.67-1.22,3.25-1.55c1.89-0.41,3.12-0.7,3.69-0.86c0.56-0.16,1.16-0.38,1.78-0.65 c0-0.67-0.13-1.14-0.38-1.41c-0.26-0.27-0.71-0.4-1.35-0.4c-0.83,0-1.45,0.14-1.86,0.43C60.62,46.2,60.35,46.61,60.15,47.23 L60.15,47.23z M64.53,50.1c-0.69,0.27-1.42,0.51-2.17,0.71c-1.03,0.29-1.68,0.58-1.95,0.87c-0.28,0.3-0.42,0.63-0.42,1.01 c0,0.43,0.14,0.78,0.41,1.05c0.27,0.27,0.69,0.41,1.22,0.41c0.56,0,1.08-0.15,1.57-0.44c0.48-0.3,0.83-0.65,1.03-1.08 c0.2-0.43,0.3-0.97,0.3-1.66V50.1L64.53,50.1z M78.43,37.21v5.41h2.78v3.98h-2.78v5.05c0,0.61,0.06,1.01,0.16,1.21 c0.17,0.31,0.46,0.46,0.87,0.46c0.37,0,0.89-0.12,1.56-0.35l0.37,3.77c-1.25,0.29-2.41,0.44-3.5,0.44c-1.26,0-2.18-0.17-2.78-0.52 c-0.6-0.35-1.04-0.88-1.32-1.59c-0.28-0.71-0.43-1.86-0.43-3.45V46.6h-1.86v-3.98h1.86v-2.62L78.43,37.21L78.43,37.21z"/></g></svg>