<?xml version="1.0" encoding="utf-8"?><svg version="1.1" id="Layer_1" xmlns="http://www.w3.org/2000/svg" xmlns:xlink="http://www.w3.org/1999/xlink" x="0px" y="0px" viewBox="0 0 92.04 122.88" style="enable-background:new 0 0 92.04 122.88" xml:space="preserve"><style type="text/css">.st0{fill-rule:evenodd;clip-rule:evenodd;}</style><g><path class="st0" d="M21.74,33.56h48.65c0.24,0,0.44,0.2,0.44,0.44c0,3.15,0,1.05,0,4.19c0,0.24-0.2,0.44-0.44,0.44H21.74 c-0.29,0-0.53-0.24-0.53-0.53c0-3.09,0-0.93,0-4.02C21.21,33.8,21.45,33.56,21.74,33.56L21.74,33.56z M9.25,7.23h7.81V2.33 c0-1.28,1.28-2.33,2.85-2.33h0c1.57,0,2.85,1.05,2.85,2.33v4.89h12.4V2.33C35.16,1.05,36.44,0,38,0h0c1.57,0,2.85,1.05,2.85,2.33 v4.89h12.4V2.33C53.25,1.05,54.53,0,56.1,0h0c1.57,0,2.85,1.05,2.85,2.33v4.89h12.4V2.33c0-1.28,1.28-2.33,2.85-2.33h0 c1.57,0,2.85,1.05,2.85,2.33v4.89h5.74c5.09,0,9.25,4.16,9.25,9.25v97.15c0,5.09-4.16,9.25-9.25,9.25H9.25 c-5.09,0-9.25-4.16-9.25-9.25V16.48C0,11.39,4.16,7.23,9.25,7.23L9.25,7.23z M9.99,15.1h7.07v3.47c0,1.28,1.28,2.33,2.85,2.33h0 c1.57,0,2.85-1.05,2.85-2.33V15.1h12.4v3.47c0,1.28,1.28,2.33,2.85,2.33h0c1.57,0,2.85-1.05,2.85-2.33V15.1h12.4v3.47 c0,1.28,1.28,2.33,2.85,2.33h0c1.57,0,2.85-1.05,2.85-2.33V15.1h12.4v3.47c0,1.28,1.28,2.33,2.85,2.33h0 c1.57,0,2.85-1.05,2.85-2.33V15.1h5c1.43,0,2.61,1.18,2.61,2.61v94.68c0,1.42-1.18,2.61-2.61,2.61H9.99 c-1.42,0-2.61-1.17-2.61-2.61V17.71C7.38,16.28,8.56,15.1,9.99,15.1L9.99,15.1z M21.74,104.89h48.65c0.24,0,0.44-0.2,0.44-0.44 c0-3.15,0-1.05,0-4.19c0-0.24-0.2-0.44-0.44-0.44H21.74c-0.29,0-0.53,0.24-0.53,0.53c0,2.73,0,1.29,0,4.02 C21.21,104.65,21.45,104.89,21.74,104.89L21.74,104.89z M21.74,88.33h48.65c0.24,0,0.44-0.2,0.44-0.44c0-3.15,0-0.57,0-3.71 c0-0.24-0.2-0.44-0.44-0.44H21.74c-0.29,0-0.53,0.24-0.53,0.53c0,3.09,0,0.45,0,3.54C21.21,88.09,21.45,88.33,21.74,88.33 L21.74,88.33z M21.74,71.76h48.65c0.24,0,0.44-0.2,0.44-0.44c0-3.15,0-1.53,0-4.67c0-0.24-0.2-0.44-0.44-0.44H21.74 c-0.29,0-0.53,0.24-0.53,0.53c0,3.09,0,1.41,0,4.5C21.21,71.52,21.45,71.76,21.74,71.76L21.74,71.76z M21.74,55.2h48.65 c0.24,0,0.44-0.2,0.44-0.44c0-3.15,0-1.05,0-4.19c0-0.24-0.2-0.44-0.44-0.44H21.74c-0.29,0-0.53,0.24-0.53,0.53 c0,3.09,0,0.93,0,4.02C21.21,54.96,21.45,55.2,21.74,55.2L21.74,55.2z"/></g></svg>